#!OML:ASF X:\für Bonn\!DataBase\2005_08_10_Bjorn_Final\c3d\bjorn.ASF
:FULLY-SPECIFIED
:DEGREES
388
root 1.40577 18.665 7.41717 -185.596 26.5862 174.572
lowerback -7.83261 3.21278 1.97815
upperback 8.84837 4.93071 -2.58243
thorax 14.6035 2.91604 -2.9155
lowerneck -2.28579 0.793532 7.91038
upperneck 27.5058 4.86636 -7.47511
head 9.30922 3.29872 -3.3994
rclavicle 4.93514e-014 -2.64259e-014
rhumerus -10.2893 5.8465 -95.3712
rradius 48.7897
rwrist 24.2495
rhand -12.3006 -0.184817
rfingers 7.12502
rthumb 13.7673 -29.7093
lclavicle 4.93514e-014 -2.64259e-014
lhumerus -56.3173 79.9029 34.4295
lradius 8.70317
lwrist -105.252
lhand -24.6641 -4.06339
lfingers 7.12502
lthumb 1.836 25.9085
rfemur 540.5 -179.448 -530.381
rtibia 31.707
rfoot -24.0897 18.9821
rtoes -16.4431
lfemur 341.088 -4.55773 351.043
ltibia 31.2537
lfoot -1.45479 -5.432
ltoes -21.9483
389
root 1.42424 18.6806 7.491 -185.459 26.3053 174.444
lowerback -7.744 3.15108 2.0067
upperback 8.89382 4.88365 -2.75596
thorax 14.6209 2.91856 -3.13722
lowerneck -2.32638 0.774613 7.96054
upperneck 27.4342 4.79941 -7.44929
head 9.28589 3.2663 -3.40462
rclavicle 1.41323e-015 2.14812e-014
rhumerus -11.3642 1.9718 -95.3972
rradius 45.7057
rwrist 23.255
rhand -9.00796 -1.15342
rfingers 7.12502
rthumb 16.9388 -30.4348
lclavicle 1.41323e-015 2.14812e-014
lhumerus 14.8309 122.03 102.355
lradius 10.1646
lwrist -138.485
lhand -26.5573 -3.1564
lfingers 7.12502
lthumb 0.00747809 26.8233
rfemur 540.116 -179.033 -530.415
rtibia 31.7646
rfoot -24.1169 19.0459
rtoes -16.5134
lfemur 340.87 -4.17678 350.983
ltibia 30.7547
lfoot -0.810705 -5.70345
ltoes -21.6584
390
root 1.44108 18.6914 7.56527 -185.332 26.0155 174.338
lowerback -7.61257 3.09934 2.0573
upperback 8.95225 4.84773 -2.91171
thorax 14.6277 2.92876 -3.3511
lowerneck -2.33372 0.739216 8.0354
upperneck 27.283 4.71638 -7.5118
head 9.22839 3.21835 -3.44653
rclavicle -4.38569e-014 4.12478e-015
rhumerus -12.2713 -1.88409 -95.0922
rradius 42.4066
rwrist 22.5709
rhand -5.99 -3.06364
rfingers 7.12502
rthumb 19.842 -32.0708
lclavicle -4.38569e-014 4.12478e-015
lhumerus 10.861 137.7 96.2053
lradius 12.0453
lwrist -151.526
lhand -26.6917 -0.412136
lfingers 7.12502
lthumb -0.122348 29.5676
rfemur 539.75 -178.75 -530.39
rtibia 31.8483
rfoot -24.0828 19.0077
rtoes -16.2899
lfemur 340.647 -3.81264 350.942
ltibia 30.2819
lfoot -0.201884 -5.97267
ltoes -21.1509
391
root 1.45739 18.7003 7.63921 -185.25 25.7249 174.24
lowerback -7.44292 3.04093 2.09037
upperback 9.05436 4.807 -3.02801
thorax 14.656 2.93513 -3.5129
lowerneck -2.31384 0.702051 8.10606
upperneck 27.0123 4.63798 -7.69339
head 9.12557 3.15582 -3.52849
rclavicle -3.74833e-014 -6.5102e-015
rhumerus -13.0711 -5.8755 -94.5023
rradius 38.9492
rwrist 22.7617
rhand -3.68673 -5.16872
rfingers 7.12502
rthumb 22.0548 -33.9311
lclavicle -3.74833e-014 -6.5102e-015
lhumerus 11.072 144.2 94.6509
lradius 13.1804
lwrist -155.041
lhand -25.164 2.10385
lfingers 7.12502
lthumb 1.35314 32.0793
rfemur 539.424 -178.498 -530.357
rtibia 31.9604
rfoot -24.0782 18.9387
rtoes -16.1645
lfemur 340.467 -3.57303 350.899
ltibia 29.83
lfoot 0.323011 -6.12758
ltoes -20.5093
392
root 1.47175 18.7066 7.71319 -185.185 25.4336 174.156
lowerback -7.2592 2.97789 2.08342
upperback 9.19783 4.75866 -3.06253
thorax 14.7108 2.92921 -3.56216
lowerneck -2.30511 0.67275 8.02154
upperneck 26.6865 4.57601 -7.88096
head 9.00407 3.08232 -3.58285
rclavicle -2.18787e-014 -5.41688e-015
rhumerus -13.8795 -9.91161 -93.5546
rradius 35.5043
rwrist 23.4247
rhand -2.24199 -7.05196
rfingers 7.12502
rthumb 23.4413 -35.6441
lclavicle -2.18787e-014 -5.41688e-015
lhumerus 12.7672 145.69 95.0296
lradius 13.4955
lwrist -153.132
lhand -23.4138 5.01093
lfingers 7.12502
lthumb 3.04346 34.969
rfemur 539.113 -178.28 -530.303
rtibia 32.1004
rfoot -24.1031 18.8364
rtoes -16.0438
lfemur 340.305 -3.47557 350.876
ltibia 29.4026
lfoot 0.78316 -6.15322
ltoes -19.6652
